PathFileType	4	(X/Y/Z)	1H_nor_fast_right.trc
DataRate	CameraRate	NumFrames	NumMarkers	Units	OrigDataRate	OrigDataStartFrame	OrigNumFrames
250.00	250.00	17	18	mm	250.00	4617	9233
Frame#	Time	c7	r_should	r_elb_m	clavicle	r_upa	r_wri_m	l_upa	l_elb_l	l_low	l_wri_l	l_met	l_elb_m	r_elb_l	l_should	r_low	r_wri_l	r_met	l_wri_m
	X1	Y1	Z1	X2	Y2	Z2	X3	Y3	Z3	X4	Y4	Z4	X5	Y5	Z5	X6	Y6	Z6	X7	Y7	Z7	X8	Y8	Z8	X9	Y9	Z9	X10	Y10	Z10	X11	Y11	Z11	X12	Y12	Z12	X13	Y13	Z13	X14	Y14	Z14	X15	Y15	Z15	X16	Y16	Z16	X17	Y17	Z17	X18	Y18	Z18
4617	18.46400	1095.85327	1425.19861	110.03351	1161.37109	1366.33704	263.46072	1126.05347	1047.57581	352.55624	1205.98718	1286.86072	91.53852	1201.17419	1166.60315	338.53564	1208.24768	823.18530	390.58841	1104.35779	1147.52991	-127.85333	1109.40222	1040.34631	-145.89229	1117.48291	917.67493	-140.33070	1136.61133	800.31635	-114.95951	1124.51123	723.50763	-160.76753	1061.28076	1028.71667	-55.50167	1213.32617	1080.56201	365.03510	1114.45593	1360.48230	-68.39124	1236.84912	951.18701	350.82504	1256.77795	829.66235	333.54269	1296.32166	772.41650	368.06296	1058.70203	794.64636	-121.80415
4618	18.46800	1095.62061	1425.80835	110.56239	1161.09705	1366.58691	263.36636	1125.71216	1048.13147	353.19531	1205.92871	1286.88147	91.58211	1200.76978	1167.09644	339.00797	1208.60388	823.88782	389.86804	1104.42700	1147.41492	-127.82383	1109.49158	1040.22888	-145.83391	1117.57642	917.54858	-140.24083	1136.17871	800.65704	-115.47277	1124.45239	723.60278	-160.91013	1061.34961	1028.61499	-55.44244	1212.79211	1081.23633	365.69904	1114.47632	1360.34900	-68.42168	1236.74304	952.08350	350.91144	1257.03760	830.87292	332.81146	1296.82166	773.55817	366.94037	1058.80688	794.51294	-121.68462
4619	18.47200	1095.46643	1425.97864	110.62289	1160.80664	1366.84497	263.28033	1125.36047	1048.70227	353.85538	1205.86780	1286.90381	91.63384	1200.35840	1167.59155	339.47867	1208.97974	824.62750	389.13086	1104.49768	1147.30371	-127.79486	1109.58032	1040.10742	-145.76720	1117.67322	917.41510	-140.12367	1136.13098	800.65558	-115.49234	1124.19751	723.98956	-161.38394	1061.42249	1028.51990	-55.38459	1212.24719	1081.91992	366.37122	1114.48193	1360.24402	-68.47250	1236.64636	953.00226	350.96796	1257.30371	832.10974	332.03003	1297.33081	774.74384	365.78000	1058.92664	794.38080	-121.55392
4620	18.47600	1095.32849	1426.04211	110.56856	1160.50574	1367.10901	263.19904	1125.01501	1049.29626	354.51208	1205.80457	1286.93225	91.69090	1199.93066	1168.11316	339.96420	1209.36462	825.41357	388.37408	1104.57190	1147.18787	-127.75728	1109.68103	1039.98315	-145.68694	1117.77502	917.27856	-139.99515	1136.17200	800.57056	-115.39355	1124.37585	723.76227	-161.14493	1061.50415	1028.42944	-55.31900	1211.67517	1082.61841	367.05478	1114.48962	1360.14551	-68.52750	1236.54333	953.98193	351.03180	1257.57056	833.41211	331.22702	1297.86206	775.98743	364.57712	1059.04468	794.25134	-121.41946
4621	18.48000	1095.19495	1426.08093	110.49086	1160.19312	1367.37939	263.12482	1124.65417	1049.90869	355.17227	1205.73975	1286.96643	91.75558	1199.48193	1168.63916	340.45956	1209.76526	826.20514	387.56207	1104.64856	1147.07031	-127.71974	1109.79236	1039.85376	-145.59207	1117.87292	917.12726	-139.86234	1136.25220	800.45190	-115.25306	1124.81836	723.15985	-160.45454	1061.56787	1028.34949	-55.24844	1211.10010	1083.32239	367.75525	1114.50024	1360.05054	-68.57925	1236.43799	954.97455	351.08533	1257.85046	834.76422	330.43027	1298.40564	777.27808	363.31992	1059.16199	794.12756	-121.29055
4622	18.48400	1094.97095	1425.70801	110.07305	1159.87061	1367.65759	263.06351	1124.30383	1050.51416	355.80981	1205.67920	1286.99988	91.82671	1199.01135	1169.16650	340.96008	1210.19995	827.04272	386.72977	1104.72571	1146.95569	-127.67901	1109.90845	1039.73059	-145.49268	1117.97192	916.98511	-139.73415	1136.34644	800.33319	-115.10325	1125.01025	722.92926	-160.18187	1061.63025	1028.26526	-55.17299	1210.52673	1084.05212	368.46741	1114.51782	1359.95862	-68.62563	1236.33289	956.00250	351.12018	1258.12964	836.15039	329.57269	1298.73657	778.72125	361.88559	1059.27771	794.00079	-121.16198
4623	18.48800	1094.63269	1424.81897	109.23648	1159.54089	1367.94653	263.00211	1123.94995	1051.12292	356.44733	1205.61609	1287.03503	91.89599	1198.55139	1169.72925	341.48615	1210.64636	827.91779	385.89429	1104.80847	1146.84131	-127.63122	1110.02942	1039.60803	-145.39592	1118.07751	916.84827	-139.61316	1136.44067	800.21979	-114.95731	1125.14795	722.78467	-160.00621	1061.69214	1028.17065	-55.10421	1209.93982	1084.79932	369.16614	1114.54089	1359.87109	-68.66873	1236.20886	957.03540	351.15997	1258.43286	837.60895	328.66989	1298.78955	780.31824	360.24881	1059.38403	793.88379	-121.02383
4624	18.49200	1094.44934	1424.60132	108.95840	1159.21521	1368.22888	262.94135	1123.58911	1051.74976	357.09741	1205.55493	1287.07837	91.96764	1198.07910	1170.30908	342.02905	1211.13318	828.81799	384.99100	1104.89648	1146.73132	-127.58492	1110.15381	1039.48401	-145.30206	1118.18701	916.71143	-139.47241	1136.53394	800.11377	-114.80125	1125.27246	722.66052	-159.84290	1061.75671	1028.07336	-55.04256	1209.34106	1085.55310	369.87640	1114.56702	1359.78540	-68.71414	1236.09326	958.11499	351.18887	1258.73926	839.11218	327.74002	1299.25842	781.81604	358.78558	1059.48193	793.77832	-120.89063
4625	18.49600	1094.30701	1424.55237	108.81538	1158.88403	1368.50671	262.87567	1123.24060	1052.37183	357.76419	1205.49292	1287.12463	92.04030	1197.59131	1170.88733	342.57544	1211.60840	829.75598	384.08078	1104.98438	1146.61926	-127.54086	1110.27393	1039.37012	-145.20496	1118.29785	916.58105	-139.33781	1136.62793	800.01282	-114.65182	1125.38721	722.54938	-159.68208	1061.81653	1027.98254	-54.99189	1208.72302	1086.32141	370.61111	1114.59375	1359.70129	-68.75754	1235.97961	959.23291	351.19363	1259.05164	840.65039	326.80420	1299.84546	783.32983	357.35278	1059.56982	793.66730	-120.77329
4626	18.50000	1094.16467	1424.53931	108.70563	1158.54224	1368.78467	262.80917	1122.89172	1053.01123	358.43698	1205.42798	1287.16992	92.11913	1197.09155	1171.48242	343.15250	1212.10840	830.74884	383.13812	1105.07849	1146.50647	-127.49165	1110.38733	1039.25891	-145.10896	1118.42395	916.45276	-139.19824	1136.72546	799.90735	-114.50331	1125.49878	722.43286	-159.51392	1061.87512	1027.88477	-54.93271	1208.10461	1087.09656	371.35660	1114.61780	1359.61792	-68.79897	1235.86743	960.37616	351.17480	1259.37732	842.25897	325.86673	1300.46826	784.87720	355.87918	1059.66528	793.55933	-120.65953
4627	18.50400	1094.01575	1424.53943	108.60001	1158.18127	1369.07104	262.73016	1122.51416	1053.67261	359.10410	1205.35718	1287.21863	92.19742	1196.57251	1172.09021	343.76004	1212.59338	831.75024	382.16925	1105.17834	1146.38977	-127.44300	1110.49829	1039.14868	-145.01616	1118.54883	916.33337	-139.04572	1136.82593	799.78479	-114.34507	1125.61072	722.31689	-159.33472	1061.94519	1027.79260	-54.87387	1207.46875	1087.90039	372.10947	1114.64038	1359.52954	-68.84196	1235.75586	961.55542	351.16968	1259.71899	843.89380	324.87680	1301.09900	786.47699	354.36560	1059.77747	793.45569	-120.55415
4628	18.50800	1093.86389	1424.55054	108.49939	1157.81592	1369.35681	262.65479	1122.14746	1054.34180	359.76578	1205.28589	1287.27612	92.28064	1196.04871	1172.68896	344.37592	1213.12915	832.78589	381.16446	1105.28784	1146.27454	-127.39041	1110.61523	1039.03479	-144.92619	1118.67920	916.22931	-138.90388	1136.93103	799.66974	-114.18627	1125.72888	722.20142	-159.15059	1062.02002	1027.70129	-54.81472	1206.83008	1088.70996	372.83975	1114.66260	1359.44946	-68.88010	1235.63989	962.75366	351.15204	1260.04675	845.57886	323.83902	1301.75977	788.12030	352.80850	1059.90588	793.34491	-120.44133
4629	18.51200	1093.71667	1424.56396	108.40398	1157.45007	1369.64526	262.59204	1121.78931	1055.01135	360.42972	1205.21301	1287.32812	92.36501	1195.52246	1173.30249	344.97952	1213.67505	833.85712	380.14398	1105.39941	1146.17273	-127.33433	1110.73547	1038.92419	-144.82976	1118.80884	916.13892	-138.77676	1137.27820	799.34314	-113.73113	1125.85681	722.08539	-158.96770	1062.10205	1027.62134	-54.74394	1206.17773	1089.53650	373.58261	1114.68469	1359.37000	-68.92069	1235.53821	963.99463	351.12881	1260.36475	847.30573	322.76135	1302.43481	789.81219	351.21304	1060.04077	793.23328	-120.32101
4630	18.51600	1093.56726	1424.57776	108.29985	1157.08435	1369.93738	262.53305	1121.42322	1055.69922	361.08786	1205.13696	1287.37903	92.45473	1194.97791	1173.94434	345.57422	1214.13171	834.93628	378.96002	1105.51428	1146.07092	-127.28506	1110.86682	1038.81543	-144.73312	1118.93481	916.04193	-138.63904	1137.91797	798.74188	-112.92803	1125.98865	721.97424	-158.79172	1062.19165	1027.53955	-54.66871	1205.50977	1090.37085	374.34738	1114.45032	1359.58728	-69.12907	1235.43066	965.27838	351.09747	1260.71558	849.08936	321.70908	1303.22961	791.79272	349.38544	1060.17810	793.13031	-120.20734
4631	18.52000	1093.41833	1424.59326	108.19681	1156.72388	1370.21973	262.45868	1121.07605	1056.39172	361.74652	1205.06079	1287.42725	92.54114	1194.43762	1174.57837	346.17395	1214.47607	836.08252	377.60605	1105.63318	1145.97339	-127.23209	1111.00415	1038.70410	-144.63866	1119.05017	915.94293	-138.49103	1138.16736	798.51099	-112.61238	1126.12451	721.86212	-158.60812	1062.27185	1027.46008	-54.59726	1204.83569	1091.20435	375.10013	1113.89282	1360.18372	-69.54900	1235.32178	966.57928	351.03918	1261.08777	850.92432	320.64169	1304.15381	794.11169	347.27032	1060.31140	793.03717	-120.09830
4632	18.52400	1093.27698	1424.61475	108.09227	1156.36658	1370.50586	262.37921	1120.72058	1057.09058	362.42151	1204.98401	1287.47437	92.63277	1193.87671	1175.20483	346.77881	1215.01404	837.24536	376.43115	1105.74658	1145.88293	-127.17874	1111.13611	1038.60132	-144.55482	1119.16077	915.84015	-138.35901	1138.32715	798.38147	-112.42427	1126.25867	721.75708	-158.42532	1062.35913	1027.38464	-54.53899	1204.16028	1092.05957	375.84174	1113.76660	1360.27893	-69.68462	1235.22388	967.90625	350.95718	1261.43713	852.77490	319.52460	1304.91833	796.08392	345.47574	1060.43262	792.94788	-119.98038
4633	18.52800	1093.13367	1424.64172	107.98836	1156.00964	1370.79919	262.30957	1120.36841	1057.77930	363.08344	1204.90527	1287.52661	92.73296	1193.30725	1175.84192	347.39392	1215.62024	838.46161	375.25272	1105.85425	1145.79346	-127.12432	1111.26086	1038.51160	-144.46547	1119.27832	915.73474	-138.22299	1138.47327	798.27863	-112.24723	1126.39978	721.65295	-158.24146	1062.45764	1027.31348	-54.48228	1203.47473	1092.92456	376.56726	1113.74475	1360.25024	-69.73939	1235.11792	969.26447	350.85681	1261.80029	854.69354	318.38467	1305.64331	798.00958	343.73279	1060.54785	792.87012	-119.85822
